<?xml version="1.0" encoding="UTF-8"?>
<svg version="1.1" xmlns="http://www.w3.org/2000/svg" width="256" height="256">
<path d="M0 0 C1.4841465 -0.00503792 1.4841465 -0.00503792 2.99827576 -0.01017761 C6.26155868 -0.01965779 9.52479011 -0.02162935 12.78808594 -0.02270508 C15.06483989 -0.02592004 17.34159364 -0.02928429 19.61834717 -0.03279114 C24.38961262 -0.03877532 29.16085997 -0.0406318 33.93212891 -0.04003906 C40.02927507 -0.03993756 46.12630448 -0.05358075 52.223423 -0.07081127 C56.92647834 -0.08196125 61.62950574 -0.08395734 66.33257294 -0.08342934 C68.57951001 -0.08460528 70.8264479 -0.08900528 73.07337189 -0.0967617 C76.2247776 -0.10662073 79.37593353 -0.10366009 82.52734375 -0.09765625 C83.44509079 -0.10327576 84.36283783 -0.10889526 85.30839539 -0.11468506 C97.48915567 -0.05607534 107.2598858 2.47439913 116.33496094 10.89526367 C122.51903496 17.39962838 125.0931097 25.07361098 125.2277832 33.92358398 C125.24772842 35.08448547 125.26767365 36.24538696 125.28822327 37.44146729 C125.30493576 38.68950134 125.32164825 39.9375354 125.33886719 41.22338867 C125.35964828 42.50509949 125.38042938 43.7868103 125.40184021 45.10736084 C125.45690841 48.50702639 125.50638457 51.90675105 125.5546875 55.30651855 C125.60501426 58.77886181 125.66064186 62.25111973 125.71582031 65.72338867 C125.82321516 72.53060628 125.92470121 79.33790106 126.02246094 86.14526367 C126.82671509 85.41231079 126.82671509 85.41231079 127.6472168 84.66455078 C128.3575708 84.02783447 129.0679248 83.39111816 129.79980469 82.73510742 C130.50097412 82.10209717 131.20214355 81.46908691 131.92456055 80.81689453 C136.63705719 77.06192368 142.19462727 76.55260262 148.02246094 77.14526367 C155.14059923 79.0381444 160.06012437 81.85540073 164.02246094 88.14526367 C166.9507289 94.0017996 167.24383345 101.32614963 165.25292969 107.55151367 C162.21840974 113.98512487 158.02173092 119.81869675 154.03027344 125.68823242 C149.83675236 131.8676345 145.79394415 138.14594334 141.72802734 144.40966797 C141.13425293 145.32272705 140.54047852 146.23578613 139.92871094 147.17651367 C139.32172363 148.13589844 138.71473633 149.0952832 138.08935547 150.08374023 C136.57606112 152.32526057 135.07857739 154.32216278 133.35791016 156.38647461 C124.52383927 167.41856993 124.75919097 177.68366238 125.14746094 191.39526367 C125.21906483 195.44216223 125.2622848 199.48840268 125.28027344 203.53588867 C125.28481033 204.48878281 125.28934723 205.44167694 125.29402161 206.42344666 C125.21198555 216.58227314 122.86182428 224.10508946 115.73730469 231.50073242 C105.26031844 241.54813837 94.45762304 242.29593891 80.56054688 242.29052734 C79.31898331 242.29388596 78.07741974 242.29724457 76.79823303 242.30070496 C73.40750244 242.30855444 70.01683311 242.31188122 66.62609768 242.31252074 C64.50245085 242.31323389 62.37881035 242.31537325 60.2551651 242.31801796 C52.83140153 242.32725751 45.40765585 242.33135469 37.98388672 242.33056641 C31.08852283 242.32996635 24.19323735 242.34050749 17.29789329 242.35631007 C11.3579229 242.36943292 5.417978 242.3747483 -0.52200675 242.374111 C-4.06076301 242.37385735 -7.59944954 242.37663399 -11.13819122 242.38728905 C-15.0915069 242.39886834 -19.04471706 242.39419429 -22.99804688 242.38818359 C-24.1537468 242.3938031 -25.30944672 242.39942261 -26.50016785 242.4052124 C-40.2848802 242.35218767 -49.56049292 240.26137124 -59.79003906 230.77026367 C-65.9587226 224.31533032 -68.09288672 217.35337414 -68.12471008 208.58139038 C-68.13022512 207.5945441 -68.13022512 207.5945441 -68.13585156 206.58776152 C-68.14685839 204.38475298 -68.15072715 202.18179165 -68.15454102 199.97875977 C-68.16080803 198.39835461 -68.16745504 196.81795092 -68.17445374 195.23754883 C-68.19547152 190.04794333 -68.20585526 184.85833763 -68.21582031 179.66870117 C-68.21986898 177.87968556 -68.22398594 176.09067011 -68.22817039 174.30165482 C-68.24721852 165.89429489 -68.2614493 157.48694371 -68.26978236 149.07956636 C-68.27954813 139.38765644 -68.30585193 129.69597531 -68.34628326 120.00414598 C-68.37648913 112.50503073 -68.39125555 105.0059809 -68.39456338 97.50680602 C-68.39690911 93.03178158 -68.40580708 88.55700165 -68.43102455 84.08204269 C-68.45438818 79.86797674 -68.45850543 75.65431486 -68.44826317 71.44020081 C-68.44776968 69.89955421 -68.45403475 68.35888716 -68.46781921 66.81830215 C-68.55908106 56.0075543 -67.83025614 46.38231351 -59.95019531 38.25463867 C-58.76901123 37.01810547 -58.76901123 37.01810547 -57.56396484 35.7565918 C-56.28368408 34.46398438 -56.28368408 34.46398438 -54.97753906 33.14526367 C-54.06858887 32.20618164 -53.15963867 31.26709961 -52.22314453 30.29956055 C-49.80648344 27.81009069 -47.36489307 25.34691293 -44.91137695 22.89379883 C-43.40773179 21.38794567 -41.91231669 19.87421802 -40.41699219 18.36010742 C-27.65316778 5.51964117 -18.25212949 -0.00893413 0 0 Z " fill="#C2C9E9" transform="translate(78.9775390625,6.854736328125)"/>
<path d="M0 0 C1.3799584 0.01107326 2.75995453 0.01809997 4.13995361 0.02131653 C7.01216286 0.03803829 9.8811943 0.08697749 12.75244141 0.1628418 C16.41637884 0.25934451 20.07801827 0.29893114 23.74309921 0.31751537 C27.26652869 0.33786784 30.7894003 0.38670634 34.3125 0.4375 C36.27361725 0.46133003 36.27361725 0.46133003 38.27435303 0.48564148 C46.78127249 0.70816274 52.93157088 1.53347783 59.578125 7.20703125 C60.21105469 7.72523437 60.84398437 8.2434375 61.49609375 8.77734375 C68.13495471 16.85348389 68.1936287 26.18789619 68.4140625 36.19921875 C68.44226011 37.36090261 68.44226011 37.36090261 68.47102737 38.54605484 C68.56586171 42.66194904 68.63327699 46.77735009 68.68115234 50.89404297 C68.72513715 54.24091605 68.82159709 57.5794192 68.96826172 60.92333984 C69.99063469 84.77343772 67.15761451 99.48022045 51.73306274 118.1444397 C47.79034267 123.08890459 44.4389084 128.39412476 41.015625 133.70703125 C39.82065839 135.5119478 38.62540429 137.31667409 37.4296875 139.12109375 C33.02107897 146.10094091 29.95758732 152.20013884 29.640625 160.58203125 C29.61242676 161.25057129 29.58422852 161.91911133 29.55517578 162.60791016 C29.47464953 164.76611373 29.42764278 166.9226608 29.390625 169.08203125 C29.37547852 169.85901367 29.36033203 170.63599609 29.34472656 171.43652344 C29.30548291 173.77678503 29.28061563 176.11649434 29.265625 178.45703125 C29.26079102 179.18857422 29.25595703 179.92011719 29.25097656 180.67382812 C29.20022027 184.50474143 29.20022027 184.50474143 30.390625 188.08203125 C37.74100952 189.04395924 43.07442139 185.67085359 49.453125 182.33203125 C50.51595703 181.79320312 51.57878906 181.254375 52.67382812 180.69921875 C57.80049924 178.07344091 62.63896824 175.32945625 67.390625 172.08203125 C67.51541066 176.74095178 67.60551241 181.39887306 67.6652832 186.05908203 C67.69023126 187.63998384 67.72420305 189.22077267 67.76782227 190.80126953 C68.06363757 201.80559875 67.80972792 210.32893123 59.85546875 218.7734375 C59.02144531 219.39089844 58.18742187 220.00835937 57.328125 220.64453125 C56.49152344 221.28519531 55.65492188 221.92585937 54.79296875 222.5859375 C50.07743327 225.52260431 45.22470751 225.26277546 39.80175781 225.32250977 C38.9362027 225.33550613 38.07064758 225.3485025 37.17886353 225.3618927 C28.14516635 225.48843383 19.11055549 225.54530893 10.07617188 225.59692383 C5.79244516 225.6236839 1.50982879 225.67244219 -2.7734375 225.74047852 C-7.95234989 225.82252077 -13.1302036 225.86512102 -18.30973053 225.87998772 C-20.2793435 225.89221679 -22.24892251 225.9182065 -24.21816254 225.95843697 C-39.56786679 226.25635705 -39.56786679 226.25635705 -44.55749512 223.38619995 C-46.62668816 221.37884292 -48.12504567 219.54382449 -49.609375 217.08203125 C-50.05271179 216.37603287 -50.49604858 215.67003448 -50.95281982 214.94264221 C-53.5819851 210.4713378 -54.24335046 206.20637481 -54.609375 201.08203125 C-54.01769531 200.99566406 -53.42601563 200.90929687 -52.81640625 200.8203125 C-47.28732444 199.83716418 -44.20105362 198.68386948 -40.609375 194.08203125 C-39.42196067 190.51978825 -39.44722282 187.27044287 -39.44140625 183.5625 C-39.43807785 182.82630936 -39.43474945 182.09011871 -39.43132019 181.33161926 C-39.42626028 179.77406437 -39.42391158 178.21649865 -39.42407227 176.65893555 C-39.42189264 174.28871523 -39.40374645 171.9189657 -39.38476562 169.54882812 C-39.38183004 168.03255367 -39.37984635 166.51627701 -39.37890625 165 C-39.37172073 164.29667038 -39.36453522 163.59334076 -39.35713196 162.86869812 C-39.37681546 158.57856384 -39.82429179 155.00402403 -41.609375 151.08203125 C-44.6713508 149.70531686 -44.6713508 149.70531686 -48.234375 149.20703125 C-51.39 148.65015625 -51.39 148.65015625 -54.609375 148.08203125 C-54.609375 141.48203125 -54.609375 134.88203125 -54.609375 128.08203125 C-50.154375 127.58703125 -50.154375 127.58703125 -45.609375 127.08203125 C-41.3803889 125.52515975 -41.3803889 125.52515975 -40.38037109 121.95141602 C-39.58962882 117.98293146 -39.28645785 114.20120065 -39.2734375 110.171875 C-39.2667807 109.44134415 -39.2601239 108.71081329 -39.25326538 107.95814514 C-39.24320543 106.42451472 -39.23844628 104.89084111 -39.23876953 103.35717773 C-39.23437944 101.02189068 -39.19794744 98.6884714 -39.16015625 96.35351562 C-39.15428979 94.85547514 -39.15031925 93.35742579 -39.1484375 91.859375 C-39.13406647 91.1685936 -39.11969543 90.47781219 -39.10488892 89.76609802 C-39.1516914 84.76386267 -40.46868903 81.92848528 -43.609375 78.08203125 C-47.12648255 76.13836655 -50.67336595 75.71634676 -54.609375 75.08203125 C-54.75661541 70.66572512 -54.84409274 66.25006341 -54.921875 61.83203125 C-54.96376953 60.59710938 -55.00566406 59.3621875 -55.04882812 58.08984375 C-55.19312209 47.12350268 -52.85522268 38.48130326 -45.609375 30.08203125 C-43.46875 28.28125 -43.46875 28.28125 -41.359375 26.76953125 C-40.29976562 26.00189453 -40.29976562 26.00189453 -39.21875 25.21875 C-38.68765625 24.84363281 -38.1565625 24.46851562 -37.609375 24.08203125 C-37.54878906 25.335 -37.48820312 26.58796875 -37.42578125 27.87890625 C-37.34135244 29.52995849 -37.25670561 31.1809996 -37.171875 32.83203125 C-37.13255859 33.65703125 -37.09324219 34.48203125 -37.05273438 35.33203125 C-37.01083984 36.13125 -36.96894531 36.93046875 -36.92578125 37.75390625 C-36.88912354 38.48706055 -36.85246582 39.22021484 -36.81469727 39.97558594 C-36.60287643 42.14870151 -36.37341783 44.03154702 -35.609375 46.08203125 C-32.03696481 47.27283465 -28.78289855 47.23741649 -25.06445312 47.24316406 C-24.29830185 47.24812897 -23.53215057 47.25309387 -22.74278259 47.25820923 C-20.20872094 47.27281331 -17.67472182 47.27962872 -15.140625 47.28515625 C-13.38090004 47.29090765 -11.62117511 47.29666539 -9.8614502 47.3024292 C-6.17276721 47.31293315 -2.48410599 47.31878028 1.20458984 47.32226562 C5.9360869 47.32775944 10.6672975 47.35180879 15.39870453 47.38023758 C19.03262176 47.39883678 22.66646948 47.40406803 26.3004303 47.4056015 C28.04518709 47.40863301 29.78994252 47.41667825 31.53465271 47.42978668 C33.97189355 47.44679619 36.40842742 47.44498011 38.84570312 47.43847656 C39.56891251 47.44769135 40.29212189 47.45690613 41.0372467 47.46640015 C43.96069759 47.44189905 45.91281441 47.42149849 48.33792114 45.69854736 C49.77428251 43.49289258 49.77856361 41.92250356 49.7890625 39.30078125 C49.79292969 38.37652344 49.79679687 37.45226563 49.80078125 36.5 C49.78917969 35.53707031 49.77757812 34.57414062 49.765625 33.58203125 C49.77722656 32.61910156 49.78882813 31.65617187 49.80078125 30.6640625 C49.79691406 29.73980469 49.79304688 28.81554687 49.7890625 27.86328125 C49.78398682 26.59581055 49.78398682 26.59581055 49.77880859 25.30273438 C49.30725439 22.60508843 48.51185954 21.75726927 46.390625 20.08203125 C43.4368843 18.6051609 40.42754241 18.90322166 37.18701172 18.87670898 C36.4454483 18.86680939 35.70388489 18.85690979 34.93984985 18.84671021 C32.48337012 18.81506762 30.02687103 18.79032694 27.5703125 18.765625 C25.869227 18.74505785 24.16814664 18.72406144 22.46707153 18.70265198 C17.98561764 18.64740661 13.50411744 18.59800822 9.02258301 18.54980469 C4.45121123 18.49960765 -0.12009313 18.44391221 -4.69140625 18.38867188 C-13.66400494 18.28106016 -22.63666211 18.17962189 -31.609375 18.08203125 C-29.6696564 15.67048921 -27.68568948 13.37440644 -25.609375 11.08203125 C-24.83914001 10.20642044 -24.06890503 9.33080963 -23.27532959 8.42866516 C-15.89719774 0.80166809 -10.39784051 -0.33772149 0 0 Z " fill="#D7DCF9" transform="translate(128.609375,14.91796875)"/>
<path d="M0 0 C1.4841465 -0.00503792 1.4841465 -0.00503792 2.99827576 -0.01017761 C6.26155868 -0.01965779 9.52479011 -0.02162935 12.78808594 -0.02270508 C15.06483989 -0.02592004 17.34159364 -0.02928429 19.61834717 -0.03279114 C24.38961262 -0.03877532 29.16085997 -0.0406318 33.93212891 -0.04003906 C40.02927507 -0.03993756 46.12630448 -0.05358075 52.223423 -0.07081127 C56.92647834 -0.08196125 61.62950574 -0.08395734 66.33257294 -0.08342934 C68.57951001 -0.08460528 70.8264479 -0.08900528 73.07337189 -0.0967617 C76.2247776 -0.10662073 79.37593353 -0.10366009 82.52734375 -0.09765625 C83.44509079 -0.10327576 84.36283783 -0.10889526 85.30839539 -0.11468506 C97.48915567 -0.05607534 107.2598858 2.47439913 116.33496094 10.89526367 C122.51903496 17.39962838 125.0931097 25.07361098 125.2277832 33.92358398 C125.24772842 35.08448547 125.26767365 36.24538696 125.28822327 37.44146729 C125.30493576 38.68950134 125.32164825 39.9375354 125.33886719 41.22338867 C125.35964828 42.50509949 125.38042938 43.7868103 125.40184021 45.10736084 C125.45690841 48.50702639 125.50638457 51.90675105 125.5546875 55.30651855 C125.60501426 58.77886181 125.66064186 62.25111973 125.71582031 65.72338867 C125.82321516 72.53060628 125.92470121 79.33790106 126.02246094 86.14526367 C126.82671509 85.41231079 126.82671509 85.41231079 127.6472168 84.66455078 C128.3575708 84.02783447 129.0679248 83.39111816 129.79980469 82.73510742 C130.50097412 82.10209717 131.20214355 81.46908691 131.92456055 80.81689453 C136.63705719 77.06192368 142.19462727 76.55260262 148.02246094 77.14526367 C155.14059923 79.0381444 160.06012437 81.85540073 164.02246094 88.14526367 C166.9507289 94.0017996 167.24383345 101.32614963 165.25292969 107.55151367 C162.21840974 113.98512487 158.02173092 119.81869675 154.03027344 125.68823242 C149.83675236 131.8676345 145.79394415 138.14594334 141.72802734 144.40966797 C141.13425293 145.32272705 140.54047852 146.23578613 139.92871094 147.17651367 C139.32172363 148.13589844 138.71473633 149.0952832 138.08935547 150.08374023 C136.57606112 152.32526057 135.07857739 154.32216278 133.35791016 156.38647461 C124.52383927 167.41856993 124.75919097 177.68366238 125.14746094 191.39526367 C125.21906483 195.44216223 125.2622848 199.48840268 125.28027344 203.53588867 C125.28481033 204.48878281 125.28934723 205.44167694 125.29402161 206.42344666 C125.21198555 216.58227314 122.86182428 224.10508946 115.73730469 231.50073242 C105.26031844 241.54813837 94.45762304 242.29593891 80.56054688 242.29052734 C79.31898331 242.29388596 78.07741974 242.29724457 76.79823303 242.30070496 C73.40750244 242.30855444 70.01683311 242.31188122 66.62609768 242.31252074 C64.50245085 242.31323389 62.37881035 242.31537325 60.2551651 242.31801796 C52.83140153 242.32725751 45.40765585 242.33135469 37.98388672 242.33056641 C31.08852283 242.32996635 24.19323735 242.34050749 17.29789329 242.35631007 C11.3579229 242.36943292 5.417978 242.3747483 -0.52200675 242.374111 C-4.06076301 242.37385735 -7.59944954 242.37663399 -11.13819122 242.38728905 C-15.0915069 242.39886834 -19.04471706 242.39419429 -22.99804688 242.38818359 C-24.1537468 242.3938031 -25.30944672 242.39942261 -26.50016785 242.4052124 C-40.2848802 242.35218767 -49.56049292 240.26137124 -59.79003906 230.77026367 C-65.9587226 224.31533032 -68.09288672 217.35337414 -68.12471008 208.58139038 C-68.13022512 207.5945441 -68.13022512 207.5945441 -68.13585156 206.58776152 C-68.14685839 204.38475298 -68.15072715 202.18179165 -68.15454102 199.97875977 C-68.16080803 198.39835461 -68.16745504 196.81795092 -68.17445374 195.23754883 C-68.19547152 190.04794333 -68.20585526 184.85833763 -68.21582031 179.66870117 C-68.21986898 177.87968556 -68.22398594 176.09067011 -68.22817039 174.30165482 C-68.24721852 165.89429489 -68.2614493 157.48694371 -68.26978236 149.07956636 C-68.27954813 139.38765644 -68.30585193 129.69597531 -68.34628326 120.00414598 C-68.37648913 112.50503073 -68.39125555 105.0059809 -68.39456338 97.50680602 C-68.39690911 93.03178158 -68.40580708 88.55700165 -68.43102455 84.08204269 C-68.45438818 79.86797674 -68.45850543 75.65431486 -68.44826317 71.44020081 C-68.44776968 69.89955421 -68.45403475 68.35888716 -68.46781921 66.81830215 C-68.55908106 56.0075543 -67.83025614 46.38231351 -59.95019531 38.25463867 C-58.76901123 37.01810547 -58.76901123 37.01810547 -57.56396484 35.7565918 C-56.28368408 34.46398438 -56.28368408 34.46398438 -54.97753906 33.14526367 C-54.06858887 32.20618164 -53.15963867 31.26709961 -52.22314453 30.29956055 C-49.80648344 27.81009069 -47.36489307 25.34691293 -44.91137695 22.89379883 C-43.40773179 21.38794567 -41.91231669 19.87421802 -40.41699219 18.36010742 C-27.65316778 5.51964117 -18.25212949 -0.00893413 0 0 Z M-8.97753906 8.14526367 C-8.99212158 9.32556152 -9.0067041 10.50585938 -9.02172852 11.72192383 C-9.07986603 16.11675742 -9.15709787 20.51108694 -9.23999023 24.90551758 C-9.27316699 26.80452266 -9.30122137 28.70362463 -9.32397461 30.6027832 C-9.35765424 33.33871602 -9.40997627 36.07376678 -9.46582031 38.80932617 C-9.4754052 40.07530136 -9.4754052 40.07530136 -9.48518372 41.36685181 C-9.60714433 46.29832964 -10.03857603 49.99279583 -12.97753906 54.14526367 C-17.90527624 57.65134171 -22.70748472 57.61399652 -28.53222656 57.65698242 C-29.43377472 57.67493362 -30.33532288 57.69288483 -31.26419067 57.71138 C-34.12692674 57.76530518 -36.98949777 57.79932142 -39.85253906 57.83276367 C-41.8004786 57.86595247 -43.74839642 57.90044357 -45.69628906 57.9362793 C-50.45658632 58.02102139 -55.21683615 58.08791726 -59.97753906 58.14526367 C-60.07110279 78.18200394 -60.14157719 98.21869968 -60.18478775 118.25561333 C-60.20538709 127.55972484 -60.23345729 136.86370038 -60.27929688 146.16772461 C-60.31924528 154.27990759 -60.34499097 162.39199206 -60.35389304 170.50427067 C-60.35909428 174.79716957 -60.37126387 179.08978672 -60.40045929 183.38259506 C-60.42775513 187.42915527 -60.4359557 191.47531959 -60.42996979 195.52196312 C-60.43106373 197.00133737 -60.43893307 198.48072586 -60.45436096 199.96002007 C-60.54974171 209.58343709 -60.09659786 218.03641256 -53.86425781 225.76635742 C-53.13851562 226.36577148 -52.41277344 226.96518555 -51.66503906 227.58276367 C-50.94703125 228.20022461 -50.22902344 228.81768555 -49.48925781 229.45385742 C-42.05357949 234.46108715 -35.82481176 234.57747748 -27.02490234 234.53344727 C-25.08458633 234.5413327 -25.08458633 234.5413327 -23.10507202 234.54937744 C-19.5718505 234.56300299 -16.03889309 234.55777157 -12.50566721 234.54824018 C-8.79697391 234.54061554 -5.08830239 234.54769726 -1.37960815 234.55239868 C4.84934524 234.55784946 11.07819176 234.5506839 17.30712891 234.53637695 C24.49115006 234.52006603 31.67491555 234.52533024 38.85893047 234.54185617 C45.04262272 234.55550758 51.22623837 234.55737248 57.40994084 234.54954016 C61.09620098 234.54488181 64.78234132 234.54418752 68.4685936 234.55414963 C72.58289255 234.56449256 76.69675699 234.5501225 80.81103516 234.53344727 C82.6255014 234.5425563 82.6255014 234.5425563 84.47662354 234.55184937 C93.08343146 234.48740246 100.76658469 233.44252238 107.77246094 228.08276367 C108.46855469 227.57616211 109.16464844 227.06956055 109.88183594 226.54760742 C118.02430765 217.40961454 117.65365537 208.06782556 117.33496094 196.52026367 C117.30983123 194.92785101 117.28702635 193.33539988 117.26660156 191.74291992 C117.21200971 187.87606954 117.12600444 184.01110027 117.02246094 180.14526367 C116.10972412 180.67055664 115.1969873 181.19584961 114.2565918 181.73706055 C100.85130026 189.43647712 100.85130026 189.43647712 94.58496094 192.64526367 C93.94365234 192.99073242 93.30234375 193.33620117 92.64160156 193.69213867 C88.26270132 195.92817284 84.91048745 196.49846301 80.02246094 196.14526367 C77.7148014 191.5299446 78.90083407 184.59807002 78.98974609 179.4777832 C79.01065934 177.98670012 79.01934853 176.49536302 79.01220703 175.00415039 C78.94619972 160.41653508 84.56474265 150.71103966 92.33496094 138.95776367 C92.80013123 138.24822037 93.26530151 137.53867706 93.74456787 136.80763245 C96.81241071 132.20847408 100.03255394 127.87531253 103.5625 123.61889648 C118.14514607 105.22942923 119.52727193 89.53540892 118.54986572 66.57061768 C118.42871528 63.21813084 118.3959422 59.86721246 118.36573696 56.51285458 C118.32539288 52.4611354 118.23719372 48.41089136 118.14355469 44.36010742 C118.129606 43.60826612 118.11565731 42.85642483 118.10128593 42.08180046 C117.87971268 32.39644297 117.11131628 23.6856091 110.28196716 16.25035095 C104.60215217 10.889949 97.43354234 8.01549406 89.63116455 8.02500916 C88.75900803 8.02363449 87.8868515 8.02225983 86.98826599 8.02084351 C86.03952103 8.02443878 85.09077606 8.02803406 84.11328125 8.03173828 C82.60547844 8.03151924 82.60547844 8.03151924 81.06721497 8.03129578 C77.74498333 8.03199239 74.42280778 8.03977309 71.10058594 8.04760742 C68.79701773 8.04947249 66.49344912 8.05089598 64.18988037 8.05189514 C58.12688095 8.0557133 52.06390548 8.06553763 46.00091553 8.07659912 C39.81409021 8.08682829 33.62726102 8.09139599 27.44042969 8.09643555 C15.30109625 8.1071605 3.16178058 8.12422854 -8.97753906 8.14526367 Z " fill="#080808" transform="translate(78.9775390625,6.854736328125)"/>
<path d="M0 0 C0.73098907 -0.00428513 1.46197815 -0.00857025 2.21511841 -0.01298523 C3.75652027 -0.01870904 5.29794912 -0.01924319 6.83935547 -0.01489258 C9.18113992 -0.01173784 11.52165319 -0.03519606 13.86328125 -0.06054688 C15.36718592 -0.06282081 16.87109396 -0.06352292 18.375 -0.0625 C19.06689423 -0.07170975 19.75878845 -0.08091949 20.47164917 -0.09040833 C25.38735559 -0.04429818 29.0635381 0.82976768 33.3203125 3.30078125 C36.43926777 7.70251337 36.76467224 11.86580801 36.71875 17.11328125 C36.72162018 17.84522705 36.72449036 18.57717285 36.72744751 19.33129883 C36.72947897 20.87093891 36.72401362 22.41060535 36.71142578 23.95019531 C36.69535753 26.29421209 36.71130427 28.63650499 36.73046875 30.98046875 C36.72848615 32.48307669 36.72464213 33.98568356 36.71875 35.48828125 C36.72785904 36.52915894 36.72785904 36.52915894 36.7371521 37.59106445 C36.67100783 42.21369633 35.72142618 45.36169454 33.3203125 49.30078125 C28.87059217 53.3333403 24.56541265 53.46937157 18.80078125 53.50390625 C18.06459061 53.50960632 17.32839996 53.5153064 16.56990051 53.5211792 C15.01235384 53.53061881 13.4547873 53.53715906 11.8972168 53.54101562 C9.52682164 53.55070356 7.15730047 53.581728 4.78710938 53.61328125 C3.27083846 53.61981366 1.75456137 53.6250632 0.23828125 53.62890625 C-0.46504837 53.64125305 -1.16837799 53.65359985 -1.89302063 53.6663208 C-6.56949008 53.6453915 -9.8479454 53.02875649 -13.6796875 50.30078125 C-16.55852758 45.34753321 -17.13651222 40.79540337 -17.11328125 35.171875 C-17.1185231 34.4191481 -17.12376495 33.6664212 -17.12916565 32.8908844 C-17.13554973 31.31016262 -17.13429602 29.72939311 -17.12573242 28.14868164 C-17.11719656 25.74083644 -17.1460714 23.33534745 -17.17773438 20.92773438 C-17.17934616 19.38411529 -17.17876929 17.84049204 -17.17578125 16.296875 C-17.18701523 15.58421982 -17.19824921 14.87156464 -17.20982361 14.13731384 C-17.13973993 9.07447353 -15.99463034 6.11518257 -12.6796875 2.30078125 C-8.68260558 -0.08723661 -4.54306935 -0.00594961 0 0 Z " fill="#65CA65" transform="translate(53.6796875,162.69921875)"/>
<path d="M0 0 C1.30760788 -0.0099852 1.30760788 -0.0099852 2.64163208 -0.02017212 C4.48583873 -0.0302964 6.330082 -0.03498921 8.17431641 -0.03466797 C10.99052625 -0.03903569 13.8051618 -0.07534131 16.62109375 -0.11328125 C18.41405715 -0.11915062 20.20702798 -0.12311921 22 -0.125 C23.25960037 -0.14655655 23.25960037 -0.14655655 24.54464722 -0.16854858 C28.49975075 -0.13777251 30.62605029 0.02993141 34.07861328 2.11474609 C38.15244247 6.51974942 38.44123581 10.03928153 38.43359375 15.91796875 C38.43787888 16.65037277 38.442164 17.38277679 38.44657898 18.13737488 C38.45231127 19.6847531 38.45283065 21.23215827 38.44848633 22.77954102 C38.44533694 25.13019637 38.46876046 27.4795792 38.49414062 29.83007812 C38.49641502 31.33854009 38.49711647 32.84700541 38.49609375 34.35546875 C38.5053035 35.05050003 38.51451324 35.74553131 38.52400208 36.46162415 C38.4698642 42.26120431 37.32756565 46.78067141 33.49194336 51.24633789 C29.88231942 52.91349629 26.28710172 52.78355042 22.38671875 52.76953125 C21.53859116 52.7747731 20.69046356 52.78001495 19.81663513 52.78541565 C18.02547295 52.79183005 16.23426862 52.79050636 14.44311523 52.78198242 C11.70805527 52.77347713 8.97508782 52.80223241 6.24023438 52.83398438 C4.49739646 52.8355967 2.75455485 52.83501827 1.01171875 52.83203125 C-0.21036537 52.84888222 -0.21036537 52.84888222 -1.45713806 52.86607361 C-5.26410404 52.81954333 -7.425513 52.58557321 -10.79711914 50.67993164 C-15.09183477 45.8169095 -15.1758707 40.50268378 -15.16796875 34.26953125 C-15.17225388 33.51301773 -15.176539 32.75650421 -15.18095398 31.97706604 C-15.18666943 30.3861694 -15.18721819 28.79524664 -15.18286133 27.2043457 C-15.17969222 24.77705343 -15.20322522 22.35097086 -15.22851562 19.92382812 C-15.23078809 18.37239736 -15.23149236 16.82096334 -15.23046875 15.26953125 C-15.2396785 14.54857773 -15.24888824 13.82762421 -15.25837708 13.08482361 C-15.21786475 8.65568392 -14.60989552 5.84365954 -11.8671875 2.3359375 C-7.94207924 -0.28080134 -4.55772449 0.01202193 0 0 Z " fill="#FB4E59" transform="translate(51.8671875,90.6640625)"/>
<path d="M0 0 C1.10095505 -0.00810448 1.10095505 -0.00810448 2.22415161 -0.01637268 C4.64073506 -0.02883955 7.05612229 -0.01238377 9.47265625 0.00561523 C11.15747134 0.0054602 12.84228678 0.00397044 14.52709961 0.00120544 C18.05436004 -0.00017763 21.58121339 0.01236383 25.10839844 0.03515625 C29.62449155 0.0635408 34.13990849 0.06080243 38.65605164 0.04806614 C42.13396964 0.04110353 45.611732 0.04890486 49.08963013 0.06132317 C50.75456139 0.06583202 52.41950939 0.06617941 54.08444214 0.06225777 C56.41341267 0.05933978 58.74145892 0.07587947 61.0703125 0.09765625 C61.75513702 0.0931546 62.43996155 0.08865295 63.14553833 0.08401489 C67.42493503 0.15033364 70.12328353 0.89757279 73.53515625 3.50170898 C75.41146946 7.25433541 74.80635648 11.74673248 74.84765625 15.87670898 C74.89116211 17.31530273 74.89116211 17.31530273 74.93554688 18.78295898 C74.94392578 19.70850586 74.95230469 20.63405273 74.9609375 21.58764648 C74.97552002 22.43375488 74.99010254 23.27986328 75.00512695 24.15161133 C74.34604575 27.44735973 73.19192422 28.45568751 70.53515625 30.50170898 C67.85049783 30.89659264 65.57514608 31.04953676 62.89257812 31.01928711 C62.12788712 31.02629639 61.36319611 31.03330566 60.57533264 31.04052734 C58.05115291 31.05811249 55.5280971 31.04648347 53.00390625 31.03295898 C51.248004 31.03565377 49.4921032 31.03953607 47.73620605 31.04455566 C44.05755393 31.05045139 40.37929051 31.04188554 36.70068359 31.02319336 C31.98593964 31.00040355 27.27210647 31.01352626 22.55739594 31.03748322 C18.93195741 31.05193931 15.30673471 31.04733612 11.68128967 31.03697205 C9.94295646 31.03430423 8.20460364 31.03757648 6.46629333 31.04689026 C4.03624592 31.05705305 1.60767206 31.0415603 -0.82226562 31.01928711 C-1.54030869 31.02738403 -2.25835175 31.03548096 -2.99815369 31.04382324 C-6.40387895 30.98600853 -8.17602533 30.72405036 -10.90916443 28.61999512 C-13.79646962 24.68850457 -13.07903068 20.20825979 -13.02734375 15.50170898 C-13.06311523 14.00510742 -13.06311523 14.00510742 -13.09960938 12.47827148 C-13.09767578 11.51663086 -13.09574219 10.55499023 -13.09375 9.56420898 C-13.0944751 8.68893555 -13.0952002 7.81366211 -13.09594727 6.91186523 C-11.42957529 0.54806478 -5.70685936 -0.08056624 0 0 Z " fill="#0C0B0A" transform="translate(104.46484375,32.498291015625)"/>
<path d="M0 0 C3.5995593 1.32777518 6.66099373 2.93175071 9.86328125 5.0390625 C10.74951172 5.61914062 11.63574219 6.19921875 12.54882812 6.796875 C13.46083984 7.40015625 14.37285156 8.0034375 15.3125 8.625 C16.24384766 9.23601562 17.17519531 9.84703125 18.13476562 10.4765625 C20.42581376 11.98043 22.71408719 13.48834286 25 15 C20.04520316 23.75463402 14.68391908 32.16205533 9.0625 40.5 C8.29458814 41.64430736 7.52700925 42.78883824 6.75976562 43.93359375 C5.62362464 45.62863183 4.48661605 47.3230389 3.34609985 49.01513672 C1.45264055 51.82498923 -0.42579761 54.6431062 -2.27783203 57.48046875 C-2.99181152 58.56972656 -3.70579102 59.65898437 -4.44140625 60.78125 C-5.07892822 61.76158203 -5.7164502 62.74191406 -6.37329102 63.75195312 C-8 66 -8 66 -10 67 C-11.80004883 66.18310547 -11.80004883 66.18310547 -13.95703125 64.8671875 C-14.74013672 64.39023438 -15.52324219 63.91328125 -16.33007812 63.421875 C-17.55887695 62.65617187 -17.55887695 62.65617187 -18.8125 61.875 C-19.62009766 61.38773438 -20.42769531 60.90046875 -21.25976562 60.3984375 C-25.74324964 57.63711074 -29.32796708 54.81891424 -33 51 C-32.48203857 50.21052979 -31.96407715 49.42105957 -31.43041992 48.60766602 C-19.429665 30.32703228 -19.429665 30.32703228 -7.5 12 C-6.86227661 11.01688843 -6.86227661 11.01688843 -6.21166992 10.01391602 C-4.07756183 6.71189685 -2.00016883 3.3849011 0 0 Z " fill="#F7D842" transform="translate(202,111)"/>
<path d="M0 0 C0.73098907 -0.00428513 1.46197815 -0.00857025 2.21511841 -0.01298523 C3.75652027 -0.01870904 5.29794912 -0.01924319 6.83935547 -0.01489258 C9.18113992 -0.01173784 11.52165319 -0.03519606 13.86328125 -0.06054688 C15.36718592 -0.06282081 16.87109396 -0.06352292 18.375 -0.0625 C19.06689423 -0.07170975 19.75878845 -0.08091949 20.47164917 -0.09040833 C25.38735559 -0.04429818 29.0635381 0.82976768 33.3203125 3.30078125 C36.43926777 7.70251337 36.76467224 11.86580801 36.71875 17.11328125 C36.72162018 17.84522705 36.72449036 18.57717285 36.72744751 19.33129883 C36.72947897 20.87093891 36.72401362 22.41060535 36.71142578 23.95019531 C36.69535753 26.29421209 36.71130427 28.63650499 36.73046875 30.98046875 C36.72848615 32.48307669 36.72464213 33.98568356 36.71875 35.48828125 C36.72785904 36.52915894 36.72785904 36.52915894 36.7371521 37.59106445 C36.67100783 42.21369633 35.72142618 45.36169454 33.3203125 49.30078125 C28.87059217 53.3333403 24.56541265 53.46937157 18.80078125 53.50390625 C18.06459061 53.50960632 17.32839996 53.5153064 16.56990051 53.5211792 C15.01235384 53.53061881 13.4547873 53.53715906 11.8972168 53.54101562 C9.52682164 53.55070356 7.15730047 53.581728 4.78710938 53.61328125 C3.27083846 53.61981366 1.75456137 53.6250632 0.23828125 53.62890625 C-0.46504837 53.64125305 -1.16837799 53.65359985 -1.89302063 53.6663208 C-6.56949008 53.6453915 -9.8479454 53.02875649 -13.6796875 50.30078125 C-16.55852758 45.34753321 -17.13651222 40.79540337 -17.11328125 35.171875 C-17.1185231 34.4191481 -17.12376495 33.6664212 -17.12916565 32.8908844 C-17.13554973 31.31016262 -17.13429602 29.72939311 -17.12573242 28.14868164 C-17.11719656 25.74083644 -17.1460714 23.33534745 -17.17773438 20.92773438 C-17.17934616 19.38411529 -17.17876929 17.84049204 -17.17578125 16.296875 C-17.18701523 15.58421982 -17.19824921 14.87156464 -17.20982361 14.13731384 C-17.13973993 9.07447353 -15.99463034 6.11518257 -12.6796875 2.30078125 C-8.68260558 -0.08723661 -4.54306935 -0.00594961 0 0 Z M-8.6796875 8.30078125 C-8.7043376 13.40942021 -8.72252357 18.51802484 -8.73461914 23.62670898 C-8.73965954 25.36597293 -8.7464918 27.10523261 -8.75512695 28.84448242 C-8.76720542 31.33904062 -8.77291858 33.83354298 -8.77734375 36.328125 C-8.78250504 37.11041977 -8.78766632 37.89271454 -8.79298401 38.69871521 C-8.79317976 40.56645239 -8.74168444 42.43407329 -8.6796875 44.30078125 C-6.91896166 46.06150709 -4.6007246 45.42912909 -2.2557373 45.43972778 C-1.1198114 45.43669144 -1.1198114 45.43669144 0.0390625 45.43359375 C1.19867493 45.43502884 1.19867493 45.43502884 2.38171387 45.43649292 C4.01928794 45.43717466 5.65686469 45.43532082 7.29443359 45.43115234 C9.80963171 45.42580396 12.32465123 45.43109751 14.83984375 45.4375 C16.42708373 45.43683922 18.0143236 45.43555805 19.6015625 45.43359375 C20.35884644 45.43561798 21.11613037 45.43764221 21.8963623 45.43972778 C25.40046813 45.74531809 25.40046813 45.74531809 28.3203125 44.30078125 C28.42122725 41.71888679 28.46002749 39.16431625 28.453125 36.58203125 C28.45408173 35.8089563 28.45503845 35.03588135 28.45602417 34.23937988 C28.45670591 32.60180581 28.45485207 30.96422906 28.45068359 29.32666016 C28.44533521 26.81146204 28.45062876 24.29644252 28.45703125 21.78125 C28.45637047 20.19401002 28.4550893 18.60677015 28.453125 17.01953125 C28.45514923 16.26224731 28.45717346 15.50496338 28.45925903 14.72473145 C28.76484934 11.22062562 28.76484934 11.22062562 27.3203125 8.30078125 C24.6540522 8.21222964 22.01384136 8.18553452 19.34765625 8.203125 C18.15119225 8.20524742 18.15119225 8.20524742 16.93055725 8.20741272 C14.37293815 8.21302809 11.81540532 8.22558313 9.2578125 8.23828125 C7.52799605 8.24329427 5.79817824 8.24785752 4.06835938 8.25195312 C-0.18102303 8.2630025 -4.43034062 8.28027739 -8.6796875 8.30078125 Z " fill="#0B0D0C" transform="translate(53.6796875,162.69921875)"/>
<path d="M0 0 C1.30760788 -0.0099852 1.30760788 -0.0099852 2.64163208 -0.02017212 C4.48583873 -0.0302964 6.330082 -0.03498921 8.17431641 -0.03466797 C10.99052625 -0.03903569 13.8051618 -0.07534131 16.62109375 -0.11328125 C18.41405715 -0.11915062 20.20702798 -0.12311921 22 -0.125 C23.25960037 -0.14655655 23.25960037 -0.14655655 24.54464722 -0.16854858 C28.49975075 -0.13777251 30.62605029 0.02993141 34.07861328 2.11474609 C38.15244247 6.51974942 38.44123581 10.03928153 38.43359375 15.91796875 C38.43787888 16.65037277 38.442164 17.38277679 38.44657898 18.13737488 C38.45231127 19.6847531 38.45283065 21.23215827 38.44848633 22.77954102 C38.44533694 25.13019637 38.46876046 27.4795792 38.49414062 29.83007812 C38.49641502 31.33854009 38.49711647 32.84700541 38.49609375 34.35546875 C38.5053035 35.05050003 38.51451324 35.74553131 38.52400208 36.46162415 C38.4698642 42.26120431 37.32756565 46.78067141 33.49194336 51.24633789 C29.88231942 52.91349629 26.28710172 52.78355042 22.38671875 52.76953125 C21.53859116 52.7747731 20.69046356 52.78001495 19.81663513 52.78541565 C18.02547295 52.79183005 16.23426862 52.79050636 14.44311523 52.78198242 C11.70805527 52.77347713 8.97508782 52.80223241 6.24023438 52.83398438 C4.49739646 52.8355967 2.75455485 52.83501827 1.01171875 52.83203125 C-0.21036537 52.84888222 -0.21036537 52.84888222 -1.45713806 52.86607361 C-5.26410404 52.81954333 -7.425513 52.58557321 -10.79711914 50.67993164 C-15.09183477 45.8169095 -15.1758707 40.50268378 -15.16796875 34.26953125 C-15.17225388 33.51301773 -15.176539 32.75650421 -15.18095398 31.97706604 C-15.18666943 30.3861694 -15.18721819 28.79524664 -15.18286133 27.2043457 C-15.17969222 24.77705343 -15.20322522 22.35097086 -15.22851562 19.92382812 C-15.23078809 18.37239736 -15.23149236 16.82096334 -15.23046875 15.26953125 C-15.2396785 14.54857773 -15.24888824 13.82762421 -15.25837708 13.08482361 C-15.21786475 8.65568392 -14.60989552 5.84365954 -11.8671875 2.3359375 C-7.94207924 -0.28080134 -4.55772449 0.01202193 0 0 Z M-6.8671875 8.3359375 C-6.96814314 10.99049943 -7.00689748 13.61848926 -7 16.2734375 C-7.00095673 17.0687085 -7.00191345 17.86397949 -7.00289917 18.68334961 C-7.00358093 20.3680021 -7.00172693 22.05265721 -6.99755859 23.73730469 C-6.99221025 26.32492947 -6.99750369 28.91238066 -7.00390625 31.5 C-7.00324547 33.13281289 -7.0019643 34.76562566 -7 36.3984375 C-7.00202423 37.17759521 -7.00404846 37.95675293 -7.00613403 38.75952148 C-7.3255833 42.3438795 -7.3255833 42.3438795 -5.8671875 45.3359375 C-3.36964609 45.44921116 -0.9007876 45.50010941 1.59765625 45.50390625 C2.34616348 45.50723465 3.09467072 45.51056305 3.86585999 45.51399231 C5.45215234 45.51906443 7.0384554 45.52140055 8.62475586 45.52124023 C11.05665619 45.52342523 13.48810199 45.54157331 15.91992188 45.56054688 C17.45833178 45.56348099 18.99674384 45.56546567 20.53515625 45.56640625 C21.63052956 45.57718452 21.63052956 45.57718452 22.74803162 45.58818054 C26.89551243 45.70303184 26.89551243 45.70303184 30.1328125 43.3359375 C30.32018899 40.69477637 30.38851116 38.1603977 30.36328125 35.51953125 C30.36282303 34.74787125 30.36236481 33.97621124 30.3618927 33.1811676 C30.35887037 31.54955508 30.35098463 29.91794545 30.33862305 28.28637695 C30.32036037 25.7800075 30.31811338 23.27400717 30.31835938 20.76757812 C30.31344448 19.18489262 30.30761629 17.60220963 30.30078125 16.01953125 C30.29966843 15.26538437 30.2985556 14.51123749 30.29740906 13.73423767 C30.58177245 10.24301581 30.58177245 10.24301581 29.1328125 7.3359375 C26.55091804 7.23502275 23.9963475 7.19622251 21.4140625 7.203125 C20.64098755 7.20216827 19.8679126 7.20121155 19.07141113 7.20022583 C17.43383706 7.19954409 15.79626031 7.20139793 14.15869141 7.20556641 C11.64349329 7.21091479 9.12847377 7.20562124 6.61328125 7.19921875 C5.02604127 7.19987953 3.4388014 7.2011607 1.8515625 7.203125 C1.09427856 7.20110077 0.33699463 7.19907654 -0.4432373 7.19699097 C-3.94734313 6.89140066 -3.94734313 6.89140066 -6.8671875 8.3359375 Z " fill="#0B0A0B" transform="translate(51.8671875,90.6640625)"/>
<path d="M0 0 C24.09 0 48.18 0 73 0 C73 4.95 73 9.9 73 15 C48.91 15 24.82 15 0 15 C0 10.05 0 5.1 0 0 Z " fill="#FF9933" transform="translate(99,41)"/>
<path d="M0 0 C0.0990984 5.03534236 0.1715758 10.07011342 0.21972656 15.10620117 C0.23980505 16.81821586 0.26707392 18.53016228 0.30175781 20.24194336 C0.35044401 22.70704008 0.37300573 25.1712279 0.390625 27.63671875 C0.41127014 28.39836838 0.43191528 29.16001801 0.45318604 29.94474792 C0.45464634 33.42662598 0.0693587 35.85981855 -1.48046875 38.9921875 C-5.06141699 41.84584238 -8.32464774 41.62768249 -12.703125 41.48828125 C-13.54091492 41.48120651 -14.37870483 41.47413177 -15.24188232 41.46684265 C-17.91217147 41.43890066 -20.58034708 41.37616613 -23.25 41.3125 C-25.06246967 41.28741671 -26.87497228 41.26460359 -28.6875 41.24414062 C-33.12581171 41.18907504 -37.56254781 41.10280667 -42 41 C-40.69082859 35.95159448 -38.75292308 33.26736503 -35.0546875 29.62890625 C-34.56598175 29.14348862 -34.077276 28.65807098 -33.57376099 28.15794373 C-32.01666954 26.61650401 -30.44599684 25.08975062 -28.875 23.5625 C-27.84288354 22.54189112 -26.81162546 21.52041339 -25.78125 20.49804688 C-5.03237754 0 -5.03237754 0 0 0 Z " fill="#0E80CD" transform="translate(63,17)"/>
<path d="M0 0 C0.66 0.33 1.32 0.66 2 1 C2 1.66 2 2.32 2 3 C3.78965547 4.36277086 3.78965547 4.36277086 6 5.625 C7.33333333 6.41666667 8.66666667 7.20833333 10 8 C6.79630249 13.95851341 3.36036352 19.65358878 -0.4375 25.25 C-1.48583221 26.80848942 -2.53400201 28.36708808 -3.58203125 29.92578125 C-4.13197754 30.74127441 -4.68192383 31.55676758 -5.24853516 32.39697266 C-8.39030701 37.0662745 -11.50573754 41.75314527 -14.625 46.4375 C-15.80457854 48.20710388 -16.98425834 49.97664028 -18.1640625 51.74609375 C-18.66373535 52.49560303 -19.1634082 53.2451123 -19.67822266 54.01733398 C-20.78548177 55.67822266 -21.89274089 57.33911133 -23 59 C-26.3 56.69 -29.6 54.38 -33 52 C-29.45242213 45.40974298 -25.57284602 39.19253424 -21.375 33 C-20.13580335 31.15686512 -18.89753532 29.31310559 -17.66015625 27.46875 C-17.04672363 26.55480469 -16.43329102 25.64085937 -15.80126953 24.69921875 C-13.10287821 20.65565485 -10.45098579 16.58283319 -7.8125 12.5 C-7.3676123 11.81292969 -6.92272461 11.12585938 -6.46435547 10.41796875 C-4.2470075 6.98043357 -2.08005114 3.52321366 0 0 Z " fill="#E6C538" transform="translate(202,111)"/>
<path d="M0 0 C1.37478516 0.01740234 1.37478516 0.01740234 2.77734375 0.03515625 C3.69644531 0.04417969 4.61554687 0.05320312 5.5625 0.0625 C6.27277344 0.07410156 6.98304687 0.08570312 7.71484375 0.09765625 C7.75222656 1.00128906 7.78960937 1.90492187 7.828125 2.8359375 C7.92673828 4.60517578 7.92673828 4.60517578 8.02734375 6.41015625 C8.08535156 7.58191406 8.14335938 8.75367187 8.203125 9.9609375 C8.73089143 13.19602485 9.13865099 14.18450506 11.71484375 16.09765625 C13.98315668 15.04451096 15.7552848 14.0624334 17.65234375 12.41015625 C19.71484375 11.09765625 19.71484375 11.09765625 22.46484375 11.41015625 C23.20734375 11.63703125 23.94984375 11.86390625 24.71484375 12.09765625 C25.04484375 13.74765625 25.37484375 15.39765625 25.71484375 17.09765625 C23.82967512 18.61300711 21.93362571 20.10928135 20.02734375 21.59765625 C19.49689453 22.02691406 18.96644531 22.45617187 18.41992188 22.8984375 C14.69543368 25.77748972 13.68873799 26.09765625 8.71484375 26.09765625 C8.38484375 29.72765625 8.05484375 33.35765625 7.71484375 37.09765625 C15.63484375 37.09765625 23.55484375 37.09765625 31.71484375 37.09765625 C31.71484375 37.42765625 31.71484375 37.75765625 31.71484375 38.09765625 C26.89103573 38.12230815 22.06726408 38.14049318 17.2434082 38.15258789 C15.60114911 38.15762799 13.95889452 38.16446003 12.31665039 38.1730957 C9.96108896 38.18517551 7.60558666 38.19088764 5.25 38.1953125 C4.51145279 38.20047379 3.77290558 38.20563507 3.01197815 38.21095276 C1.24586287 38.21114875 -0.52012771 38.15960344 -2.28515625 38.09765625 C-4.07346073 36.30935177 -3.41364336 33.90184473 -3.42410278 31.52124023 C-3.42207855 30.74208252 -3.42005432 29.9629248 -3.41796875 29.16015625 C-3.41892548 28.36488525 -3.4198822 27.56961426 -3.42086792 26.75024414 C-3.42154968 25.06559165 -3.41969568 23.38093654 -3.41552734 21.69628906 C-3.410179 19.10866428 -3.41547244 16.52121309 -3.421875 13.93359375 C-3.42121422 12.30078086 -3.41993305 10.66796809 -3.41796875 9.03515625 C-3.41999298 8.25599854 -3.42201721 7.47684082 -3.42410278 6.67407227 C-3.39541711 0.1451033 -3.39541711 0.1451033 0 0 Z " fill="#E33A4A" transform="translate(48.28515625,97.90234375)"/>
<path d="M0 0 C0.67982941 -0.00175232 1.35965881 -0.00350464 2.06008911 -0.00531006 C4.31222062 -0.00971922 6.56427391 -0.00679387 8.81640625 -0.00341797 C10.37817398 -0.00409128 11.93994161 -0.00506153 13.50170898 -0.00631714 C16.77686561 -0.00779284 20.05199498 -0.00564363 23.32714844 -0.00097656 C27.53067697 0.00472065 31.73414166 0.00144097 35.93766785 -0.00454903 C39.16321292 -0.00815807 42.3887428 -0.00701447 45.61428833 -0.00442123 C47.16447965 -0.00375292 48.71467234 -0.00457708 50.26486206 -0.00690079 C52.4292162 -0.00943292 54.59346614 -0.00557879 56.7578125 0 C57.99088135 0.00079559 59.2239502 0.00159119 60.49438477 0.00241089 C63.37890625 0.12939453 63.37890625 0.12939453 65.37890625 1.12939453 C65.42144981 3.12894199 65.41971408 5.12981089 65.37890625 7.12939453 C63.48768511 9.02061567 60.18299053 8.25722071 57.671875 8.25878906 C56.97107819 8.26054138 56.27028137 8.2622937 55.54824829 8.26409912 C53.22094276 8.26851719 50.89371261 8.26557982 48.56640625 8.26220703 C46.95597316 8.26288008 45.34554016 8.26385012 43.73510742 8.2651062 C40.3556217 8.26658311 36.97616235 8.26442884 33.59667969 8.25976562 C29.2551412 8.25406833 24.91366452 8.25734738 20.5721283 8.26333809 C17.24539724 8.26694389 13.91868095 8.26580503 10.59194946 8.2632103 C8.99069207 8.26254108 7.38943335 8.26336927 5.78817749 8.26568985 C3.55406114 8.26821669 1.32004625 8.26437538 -0.9140625 8.25878906 C-2.82481567 8.25759567 -2.82481567 8.25759567 -4.77416992 8.25637817 C-7.62109375 8.12939453 -7.62109375 8.12939453 -8.62109375 7.12939453 C-8.66190158 5.12981089 -8.66363731 3.12894199 -8.62109375 1.12939453 C-5.73112699 -0.31558885 -3.22888163 0.00208332 0 0 Z " fill="#121214" transform="translate(115.62109375,102.87060546875)"/>
<path d="M0 0 C3.63 0 7.26 0 11 0 C11 4.29 11 8.58 11 13 C14.55734779 15.21929692 14.55734779 15.21929692 17 14.8125 C19.10427 14.06972284 19.10427 14.06972284 20.9375 12.4375 C23.48371596 10.66286463 24.95834089 10.67117199 28 11 C29 12 29 12 29.38671875 14.296875 C29 17 29 17 26.76953125 19.203125 C25.79371094 19.87859375 24.81789063 20.5540625 23.8125 21.25 C22.84957031 21.93578125 21.88664062 22.6215625 20.89453125 23.328125 C18.13303104 24.92316156 16.15699521 25.70841252 13 26 C12.67 25.67 12.34 25.34 12 25 C11.67 28.96 11.34 32.92 11 37 C3.28515625 37.09765625 3.28515625 37.09765625 1 37 C0 36 0 36 -0.11352539 32.58178711 C-0.11336628 31.06363012 -0.10767226 29.54546771 -0.09765625 28.02734375 C-0.0962413 27.22970108 -0.09482635 26.43205841 -0.09336853 25.61024475 C-0.08775316 23.05262565 -0.07519812 20.49509282 -0.0625 17.9375 C-0.05748698 16.20768355 -0.05292373 14.47786574 -0.04882812 12.74804688 C-0.03777875 8.49866447 -0.02050386 4.24934688 0 0 Z " fill="#52BA52" transform="translate(45,171)"/>
<path d="M0 0 C3.11809296 2.56784126 4.80679287 4.7204594 5.4453125 8.79296875 C5.73951087 14.49061057 4.46677091 19.08940312 1.125 23.75 C0.135 24.41 -0.855 25.07 -1.875 25.75 C-9.465 20.8 -17.055 15.85 -24.875 10.75 C-18.2152531 0.09440496 -12.27820566 -5.33835029 0 0 Z " fill="#2194EE" transform="translate(231.875,94.25)"/>
<path d="M0 0 C0.04939662 3.95096978 0.08571755 7.9018203 0.10986328 11.85302734 C0.12488107 13.8591136 0.15028981 15.86511324 0.17578125 17.87109375 C0.18222656 19.12792969 0.18867187 20.38476562 0.1953125 21.6796875 C0.20578613 22.84226074 0.21625977 24.00483398 0.22705078 25.20263672 C0 28 0 28 -2 30 C-4.52197266 30.22705078 -4.52197266 30.22705078 -7.6640625 30.1953125 C-8.78554688 30.18886719 -9.90703125 30.18242188 -11.0625 30.17578125 C-12.238125 30.15902344 -13.41375 30.14226563 -14.625 30.125 C-16.40003906 30.11146484 -16.40003906 30.11146484 -18.2109375 30.09765625 C-21.14082523 30.07402812 -24.0703134 30.04108514 -27 30 C-25.69485461 24.92275811 -23.39839442 21.75303061 -19.8125 18.0625 C-19.31854736 17.54034912 -18.82459473 17.01819824 -18.31567383 16.48022461 C-16.88722408 14.97667922 -15.44596511 13.48668182 -14 12 C-13.31679688 11.2884375 -12.63359375 10.576875 -11.9296875 9.84375 C-2.30180921 0 -2.30180921 0 0 0 Z " fill="#2196F2" transform="translate(62,27)"/>
<path d="M0 0 C8.58 0 17.16 0 26 0 C26 4.62 26 9.24 26 14 C41.18 14 56.36 14 72 14 C72 9.38 72 4.76 72 0 C72.33 0 72.66 0 73 0 C73 4.95 73 9.9 73 15 C48.91 15 24.82 15 0 15 C0 10.05 0 5.1 0 0 Z " fill="#E58125" transform="translate(99,41)"/>
<path d="M0 0 C0.97484848 0.00222061 1.94969696 0.00444122 2.9540863 0.00672913 C4.05515213 0.00680466 5.15621796 0.00688019 6.29064941 0.00695801 C8.08749428 0.01469994 8.08749428 0.01469994 9.92063904 0.02259827 C11.14000656 0.02401321 12.35937408 0.02542816 13.61569214 0.02688599 C17.52856349 0.03250485 21.4413786 0.04506055 25.35423279 0.05775452 C27.99941426 0.06276709 30.64459662 0.06733041 33.28977966 0.07142639 C39.79045005 0.08248041 46.2910874 0.09923688 52.79173279 0.12025452 C53.41673279 2.49525452 53.41673279 2.49525452 53.79173279 5.12025452 C51.79173279 7.12025452 51.79173279 7.12025452 49.50790405 7.36749268 C48.55605728 7.36606766 47.60421051 7.36464264 46.6235199 7.36317444 C45.54577805 7.36625107 44.46803619 7.3693277 43.3576355 7.37249756 C42.18991104 7.36531204 41.02218658 7.35812653 39.81907654 7.35072327 C38.62569168 7.35026505 37.43230682 7.34980682 36.20275879 7.34933472 C33.67666125 7.34630957 31.15056562 7.33841552 28.62449646 7.32606506 C24.74202421 7.30781465 20.85979031 7.30555527 16.97727966 7.30580139 C14.52870988 7.30088621 12.08014172 7.2950579 9.63157654 7.28822327 C8.46182785 7.28711044 7.29207916 7.28599762 6.08688354 7.28485107 C4.47499901 7.2752813 4.47499901 7.2752813 2.83055115 7.26551819 C1.40397438 7.25980049 1.40397438 7.25980049 -0.05142212 7.25396729 C-2.20826721 7.12025452 -2.20826721 7.12025452 -3.20826721 6.12025452 C-3.33326721 3.62025452 -3.33326721 3.62025452 -3.20826721 1.12025452 C-2.20826721 0.12025452 -2.20826721 0.12025452 0 0 Z " fill="#070707" transform="translate(110.20826721191406,122.87974548339844)"/>
<path d="M0 0 C4.79821659 1.62114502 8.6672859 4.29276759 12.8125 7.125 C13.50537109 7.59292969 14.19824219 8.06085938 14.91210938 8.54296875 C16.61091105 9.69112437 18.30584864 10.84499367 20 12 C19 15 19 15 17.05053711 16.25854492 C16.2178833 16.66177979 15.38522949 17.06501465 14.52734375 17.48046875 C13.62822266 17.92197266 12.72910156 18.36347656 11.80273438 18.81835938 C10.85720703 19.27017578 9.91167969 19.72199219 8.9375 20.1875 C7.98810547 20.65091797 7.03871094 21.11433594 6.06054688 21.59179688 C3.71124969 22.73693168 1.35779635 23.87249578 -1 25 C-1.86554551 22.05380016 -2.07775159 19.58435884 -1.9140625 16.5234375 C-1.87023437 15.688125 -1.82640625 14.8528125 -1.78125 13.9921875 C-1.7296875 13.12851563 -1.678125 12.26484375 -1.625 11.375 C-1.58117187 10.50359375 -1.53734375 9.6321875 -1.4921875 8.734375 C-1.13156032 2.26312064 -1.13156032 2.26312064 0 0 Z " fill="#425863" transform="translate(166,171)"/>
<path d="M0 0 C1.12276085 -0.0049926 1.12276085 -0.0049926 2.26820374 -0.01008606 C3.85449609 -0.01515818 5.44079915 -0.0174943 7.02709961 -0.01733398 C9.45899994 -0.01951898 11.89044574 -0.03766706 14.32226562 -0.05664062 C15.86067553 -0.05957474 17.39908759 -0.06155942 18.9375 -0.0625 C20.03287331 -0.07327827 20.03287331 -0.07327827 21.15037537 -0.08427429 C26.30633318 -0.06085432 26.30633318 -0.06085432 28.53515625 2.16796875 C28.16015625 4.79296875 28.16015625 4.79296875 27.53515625 7.16796875 C22.56893276 7.19261973 17.60274459 7.21080524 12.63647461 7.22290039 C10.94571309 7.22794065 9.25495596 7.2347728 7.56420898 7.2434082 C5.13914918 7.25548732 2.71414681 7.26119998 0.2890625 7.265625 C-0.85156898 7.27336693 -0.85156898 7.27336693 -2.01524353 7.28126526 C-3.83216945 7.28146113 -5.64897502 7.22994152 -7.46484375 7.16796875 C-8.46484375 6.16796875 -8.46484375 6.16796875 -8.58984375 3.66796875 C-8.33217303 -1.48544569 -4.13275208 0.00628048 0 0 Z " fill="#080808" transform="translate(115.46484375,175.83203125)"/>
<path d="M0 0 C0.639375 0.515625 1.27875 1.03125 1.9375 1.5625 C1.9375 2.2225 1.9375 2.8825 1.9375 3.5625 C1.35742188 3.77003906 0.77734375 3.97757812 0.1796875 4.19140625 C-6.36906097 6.77416348 -10.86733804 10.17217607 -14.0625 16.5625 C-18.17208767 15.11205729 -21.49508745 13.05139248 -25.0625 10.5625 C-19.09883998 0.107062 -11.96679201 -5.61706564 0 0 Z " fill="#0E84D4" transform="translate(232.0625,94.4375)"/>
<path d="M0 0 C1.16660156 -0.01224609 2.33320312 -0.02449219 3.53515625 -0.03710938 C5.20384766 -0.04000977 5.20384766 -0.04000977 6.90625 -0.04296875 C7.93041016 -0.04707764 8.95457031 -0.05118652 10.00976562 -0.05541992 C12.5 0.1875 12.5 0.1875 14.5 2.1875 C13.94444444 6.74305556 13.94444444 6.74305556 12.5 8.1875 C10.58541718 8.28721786 8.66717683 8.31830589 6.75 8.3203125 C5.5846875 8.32160156 4.419375 8.32289063 3.21875 8.32421875 C1.9915625 8.32035156 0.764375 8.31648437 -0.5 8.3125 C-2.34078125 8.31830078 -2.34078125 8.31830078 -4.21875 8.32421875 C-5.3840625 8.32292969 -6.549375 8.32164062 -7.75 8.3203125 C-8.82765625 8.31918457 -9.9053125 8.31805664 -11.015625 8.31689453 C-13.5 8.1875 -13.5 8.1875 -14.5 7.1875 C-14.54080783 5.18791636 -14.54254356 3.18704746 -14.5 1.1875 C-10.26620814 -0.92939593 -4.65160218 0.00256995 0 0 Z " fill="#141416" transform="translate(121.5,194.8125)"/>
<path d="M0 0 C0.70125 0.268125 1.4025 0.53625 2.125 0.8125 C2.455 2.4625 2.785 4.1125 3.125 5.8125 C1.23983137 7.32785086 -0.65621804 8.8241251 -2.5625 10.3125 C-3.09294922 10.74175781 -3.62339844 11.17101562 -4.16992188 11.61328125 C-6.62550853 13.5114648 -8.51099531 14.74807903 -11.58984375 15.29296875 C-14.4110515 14.69979174 -15.1344779 13.97804306 -16.75 11.625 C-18.49672042 8.94778366 -18.89715873 8.15965342 -18.6875 4.875 C-18.419375 4.194375 -18.15125 3.51375 -17.875 2.8125 C-14.24971432 2.61109524 -12.00998292 2.95473235 -8.875 4.8125 C-7.988125 3.966875 -7.10125 3.12125 -6.1875 2.25 C-3.2741652 -0.21353251 -3.2741652 -0.21353251 0 0 Z " fill="#12090A" transform="translate(70.875,109.1875)"/>
<path d="M0 0 C1 1 1 1 1.38671875 3.296875 C1 6 1 6 -1.23046875 8.203125 C-2.20628906 8.87859375 -3.18210937 9.5540625 -4.1875 10.25 C-5.63189453 11.27867187 -5.63189453 11.27867187 -7.10546875 12.328125 C-9.85762039 13.91776184 -11.87407676 14.6114026 -15 15 C-19.90153173 8.92560175 -19.90153173 8.92560175 -20.3125 5.0625 C-20.209375 4.381875 -20.10625 3.70125 -20 3 C-17.625 2.375 -17.625 2.375 -15 2 C-14.34 2.66 -13.68 3.32 -13 4 C-10.39156684 3.73915668 -9.11109767 3.0895949 -7.0625 1.4375 C-4.51628404 -0.33713537 -3.04165911 -0.32882801 0 0 Z " fill="#090D09" transform="translate(73,182)"/>
</svg>
